<svg xmlns="http://www.w3.org/2000/svg" fill="none" viewBox="0 0 138 80">
  <path fill="#fff" stroke="#000" stroke-width="2" d="M131.589 51.259c-.598 3.39-2.802 6.419-6.456 8.978-3.658 2.563-8.71 4.608-14.836 6.015-12.247 2.813-28.59 3.03-46.11-.058-17.518-3.09-32.801-8.884-43.348-15.716-5.276-3.417-9.323-7.067-11.885-10.726-2.558-3.655-3.593-7.255-2.995-10.645.598-3.39 2.802-6.419 6.456-8.979 3.658-2.562 8.71-4.607 14.835-6.014 12.248-2.813 28.592-3.031 46.11.058 17.519 3.089 32.803 8.884 43.349 15.716 5.276 3.417 9.323 7.066 11.885 10.726 2.558 3.655 3.593 7.255 2.995 10.645Z"/>
  <path fill="#000" d="m57.972 49.706-5.959-1.05-5.138-10.9-2.613 1.883-1.308 7.419-4.56-.804 3.911-22.182 4.56.804-1.61 9.135 10.173-7.625 5.989 1.056-10.7 7.532 7.255 14.732Z"/>
  <path fill="#000" d="m80.619 30.828-.693 3.928-6.636-1.17L70.07 51.84l-4.665-.823 3.219-18.254-6.667-1.175.693-3.928 17.968 3.168Z"/>
  <path fill="#000" d="M88.047 51.704c1.094.193 2.003.23 2.728.109 1.375-.234 2.174-.977 2.395-2.231.129-.733-.092-1.356-.663-1.87-.574-.505-1.52-1.029-2.842-1.572l-2.255-.94c-2.215-.93-3.71-1.778-4.486-2.545-1.314-1.287-1.78-3.019-1.395-5.196.35-1.987 1.363-3.51 3.04-4.569 1.676-1.06 3.914-1.342 6.713-.849 2.337.412 4.22 1.386 5.645 2.92 1.438 1.525 1.989 3.474 1.654 5.846l-4.455-.785c.155-1.349-.26-2.4-1.244-3.152-.657-.499-1.522-.843-2.595-1.032-1.194-.21-2.19-.138-2.987.218-.797.356-1.272.965-1.424 1.828-.14.793.107 1.447.74 1.962.406.34 1.315.816 2.728 1.427l3.66 1.592c1.605.697 2.774 1.456 3.508 2.279 1.14 1.277 1.537 2.903 1.188 4.88-.357 2.026-1.432 3.575-3.224 4.645-1.78 1.062-4.085 1.343-6.914.844-2.89-.51-5.046-1.567-6.47-3.173-1.421-1.616-1.929-3.578-1.522-5.886l4.425.78c-.039 1.039.104 1.845.426 2.419.592 1.046 1.8 1.73 3.626 2.051Z"/>
</svg>
