<svg width="20" height="24" viewBox="0 0 20 24" fill="none" xmlns="http://www.w3.org/2000/svg">
<path fill-rule="evenodd" clip-rule="evenodd" d="M11.3187 1.21519C11.3187 0.544065 10.7283 0 9.99999 0C9.27167 0 8.68129 0.544065 8.68129 1.21519V2.12658H7.94624C5.012 2.12658 2.58348 4.22887 2.40032 6.92748L2.10888 11.2213C1.99776 12.8584 1.40133 14.4361 0.384526 15.7824C-0.534189 16.9988 0.283698 18.6789 1.88056 18.8555L6.37355 19.3524V20.6582C6.37355 22.5039 7.99714 24 9.99999 24C12.0028 24 13.6264 22.5039 13.6264 20.6582V19.3524L18.1194 18.8555C19.7163 18.6789 20.5342 16.9988 19.6155 15.7824C18.5986 14.4361 18.0022 12.8584 17.8911 11.2213L17.5997 6.92748C17.4165 4.22887 14.988 2.12658 12.0537 2.12658H11.3187V1.21519ZM7.94624 3.94937C6.05651 3.94937 4.49247 5.3033 4.37452 7.04127L4.08308 11.335C3.94937 13.3051 3.23166 15.2035 2.0081 16.8236C1.9417 16.9116 2.00081 17.033 2.11624 17.0457L7.0451 17.5907C9.00793 17.8078 10.9921 17.8078 12.9548 17.5907L17.8837 17.0457C17.9991 17.033 18.0583 16.9116 17.9919 16.8236C16.7684 15.2035 16.0506 13.3051 15.9169 11.335L15.6255 7.04127C15.5074 5.3033 13.9434 3.94937 12.0537 3.94937H7.94624ZM9.99999 22.1772C9.08956 22.1772 8.35161 21.4972 8.35161 20.6582V19.7468H11.6484V20.6582C11.6484 21.4972 10.9104 22.1772 9.99999 22.1772Z" fill="#7707B8"/>
</svg>

