<svg width="24" height="24" viewBox="0 0 24 24" fill="none" xmlns="http://www.w3.org/2000/svg">
<path fill-rule="evenodd" clip-rule="evenodd" d="M0.624845 3.99447C-0.782324 2.4467 0.341472 0 2.45953 0H21.5405C23.6585 0 24.7823 2.44672 23.3752 3.99447L15.6821 12.4562V22.8C15.6821 23.2159 15.4619 23.6021 15.0999 23.8208C14.7381 24.0395 14.2863 24.0593 13.9058 23.8733L8.99638 21.4733C8.58056 21.27 8.3179 20.8546 8.3179 20.4V12.4562L0.624845 3.99447ZM21.5405 2.4H2.45953L10.4626 11.2027C10.6623 11.4224 10.7726 11.7061 10.7726 12V19.6584L13.2273 20.8584V12C13.2273 11.7061 13.3377 11.4224 13.5374 11.2027L21.5405 2.4Z" fill="#7707B8"/>
</svg>
