<svg
  width="24"
  height="24"
  viewBox="0 0 24 24"
  fill="none"
  xmlns="http://www.w3.org/2000/svg"
>
  <path
    d="M20.4 1.8H18V1.2C18 0.54 17.46 0 16.8 0C16.14 0 15.6 0.54 15.6 1.2V1.8H8.4V1.2C8.4 0.54 7.86 0 7.2 0C6.54 0 6 0.54 6 1.2V1.8H3.6C1.62 1.8 0 3.42 0 5.4V20.4C0 22.38 1.62 24 3.6 24H20.4C22.38 24 24 22.38 24 20.4V5.4C24 3.42 22.38 1.8 20.4 1.8ZM3.6 4.2H6V4.8C6 5.46 6.54 6 7.2 6C7.86 6 8.4 5.46 8.4 4.8V4.2H15.6V4.8C15.6 5.46 16.14 6 16.8 6C17.46 6 18 5.46 18 4.8V4.2H20.4C21.06 4.2 21.6 4.74 21.6 5.4V7.2H2.4V5.4C2.4 4.74 2.94 4.2 3.6 4.2ZM20.4 21.6H3.6C2.94 21.6 2.4 21.06 2.4 20.4V9.6H21.6V20.4C21.6 21.06 21.06 21.6 20.4 21.6Z"
    fill="currentColor"
  />
  <path
    d="M18 12H6C5.34 12 4.8 12.54 4.8 13.2C4.8 13.86 5.34 14.4 6 14.4H18C18.66 14.4 19.2 13.86 19.2 13.2C19.2 12.54 18.66 12 18 12Z"
    fill="currentColor"
  />
  <path
    d="M13.2 16.8H6C5.34 16.8 4.8 17.34 4.8 18C4.8 18.66 5.34 19.2 6 19.2H13.2C13.86 19.2 14.4 18.66 14.4 18C14.4 17.34 13.86 16.8 13.2 16.8Z"
    fill="currentColor"
  />
</svg>