<svg width="24" height="24" viewBox="0 0 24 24" fill="none" xmlns="http://www.w3.org/2000/svg">
<g clip-path="url(#clip0_2_6)">
<path fill-rule="evenodd" clip-rule="evenodd" d="M12 12C9.3528 12 7.2 9.8472 7.2 7.2C7.2 4.5528 9.3528 2.4 12 2.4C14.6472 2.4 16.8 4.5528 16.8 7.2C16.8 9.8472 14.6472 12 12 12ZM16.5096 12.8076C18.1488 11.4888 19.2 9.468 19.2 7.2C19.2 3.2232 15.9768 0 12 0C8.0232 0 4.8 3.2232 4.8 7.2C4.8 9.468 5.85121 11.4888 7.49041 12.8076C3.09961 14.4576 0 18.534 0 24H2.4C2.4 18 6.7068 14.4 12 14.4C17.2932 14.4 21.6 18 21.6 24H24C24 18.534 20.9004 14.4576 16.5096 12.8076Z" fill="currentColor"/>
</g>
<defs>
<clipPath id="clip0_2_6">
<rect width="24" height="24" fill="white"/>
</clipPath>
</defs>
</svg>
